<?xml version="1.0" encoding="utf-8"?>
<!-- Generator: Adobe Illustrator 19.0.0, SVG Export Plug-In . SVG Version: 6.00 Build 0)  -->
<svg version="1.1" id="Layer_1" xmlns="http://www.w3.org/2000/svg" xmlns:xlink="http://www.w3.org/1999/xlink" x="0px" y="0px"
	 viewBox="0 0 500 500" style="enable-background:new 0 0 500 500;" xml:space="preserve">
<style type="text/css">
	.st0{fill:#252525;}
	.st1{fill:#6682DF;}
	.st2{fill:#4063D8;}
	.st3{fill:#D5635C;}
	.st4{fill:#CB3C33;}
	.st5{fill:#60AD51;}
	.st6{fill:#389826;}
	.st7{fill:#AA79C1;}
	.st8{fill:#9558B2;}
</style>
<g id="XMLID_1_">
	<path id="XMLID_3_" class="st0" d="M138.5,328V221l-31.7,8.7v113.8c0,6-0.5,10-1.4,12.1c-0.9,2.1-2.3,3.1-4,3.1
		c-0.8,0-1.8-0.3-2.8-1c-1-0.6-2.3-1.9-3.7-3.9c-1.3-1.8-2.9-3.5-4.9-5.3c-2-1.8-4.6-2.7-8-2.7c-4.4,0-8,1.1-10.6,3.3
		c-2.6,2.2-3.9,4.9-3.9,8.2c0,3.9,2.4,7.2,7.1,10c4.7,2.8,11.5,4.2,20.3,4.2c6.6,0,12.5-0.5,17.9-1.6c5.4-1.1,9.9-3.2,13.8-6.3
		c3.8-3.1,6.8-7.5,8.9-13.2C137.5,344.7,138.5,337.2,138.5,328L138.5,328z"/>
	<path id="XMLID_4_" class="st0" d="M182.5,224H151v73.2c0,4.5,0.9,8.8,2.8,12.7c1.9,4,4.5,7.4,7.8,10.4s7.2,5.3,11.6,7
		c4.4,1.7,9.2,2.6,14.4,2.6c4.4,0,9-1.1,13.7-3.2c4.7-2.1,9.1-4.9,13.3-8.4v9.7h31.6V224h-31.6v75c-2.4,3.7-5.2,6.8-8.4,9.2
		c-3.2,2.4-6,3.7-8.4,3.7c-2.1,0-4.1-0.4-6-1.2c-1.8-0.8-3.5-1.8-4.8-3.1c-1.4-1.3-2.5-2.8-3.3-4.6c-0.8-1.8-1.2-3.7-1.2-5.7V224z"
		/>
	<polygon id="XMLID_5_" class="st0" points="290.1,328 290.1,173.5 258.6,182.2 258.6,328 	"/>
	<polygon id="XMLID_6_" class="st0" points="302.6,229.7 302.6,328 334.2,328 334.2,221 	"/>
	<path id="XMLID_9_" class="st0" d="M400.8,274.3v30c-3.2,2.4-6.2,4.4-8.8,6c-2.6,1.6-5.2,2.4-7.8,2.4c-1.3,0-2.5-0.4-3.6-1.2
		c-1.1-0.8-2.1-1.8-3-3.1c-0.9-1.3-1.6-2.8-2.1-4.6c-0.5-1.8-0.8-3.7-0.8-5.6c0-2.5,0.8-4.9,2.4-7.2c1.6-2.3,3.6-4.5,6.2-6.5
		c2.5-2,5.4-3.9,8.4-5.6C394.7,277.1,397.8,275.6,400.8,274.3L400.8,274.3z M432.5,328v-77.9c0-4.3-0.8-8.3-2.5-11.8
		c-1.7-3.5-4.2-6.5-7.8-9c-3.5-2.5-8-4.4-13.4-5.7c-5.4-1.3-11.8-2-19.3-2c-6.1,0-11.9,0.6-17.3,1.9c-5.4,1.3-10.2,3-14.4,5.3
		c-4.2,2.2-7.5,4.9-9.9,8c-2.4,3.1-3.7,6.4-3.7,10c0,3.9,1.4,7.1,4.2,9.6c2.8,2.5,6.4,3.8,10.8,3.8c2.9,0,5.2-0.4,7.1-1.2
		c1.9-0.8,3.3-1.9,4.4-3.3c1-1.4,1.7-3,2.1-4.8c0.4-1.8,0.6-3.7,0.6-5.7c0-3.4,1-6.3,2.9-8.7s5.4-3.6,10.4-3.6
		c4.2,0,7.6,1.4,10.2,4.2c2.5,2.8,3.8,7.5,3.8,14.1v10.2l-3.5,0.8c-4.2,1.3-8.5,2.7-12.9,4.1c-4.3,1.4-8.5,3-12.5,4.7
		c-4,1.7-7.8,3.6-11.3,5.6c-3.5,2-6.6,4.3-9.2,6.9c-2.6,2.6-4.7,5.5-6.2,8.7c-1.5,3.2-2.3,6.8-2.3,10.8c0,3.9,0.7,7.5,2.1,10.7
		c1.4,3.3,3.5,6.1,6.2,8.5c2.7,2.4,5.9,4.3,9.8,5.7c3.8,1.4,8.1,2.1,12.9,2.1c3.5,0,6.6-0.3,9.1-0.8c2.6-0.5,4.9-1.2,7-2.1
		c2.1-0.9,3.9-2,5.6-3.3c1.7-1.2,3.4-2.6,5.1-4.1v8.3L432.5,328z"/>
	<circle id="XMLID_10_" class="st1" cx="122.3" cy="193.6" r="19.6"/>
	<path id="XMLID_11_" class="st2" d="M122.3,213.1v1.5c11.6,0,21.1-9.4,21.1-21.1c0-11.6-9.4-21.1-21.1-21.1
		c-11.6,0-21.1,9.4-21.1,21.1c0,11.6,9.4,21.1,21.1,21.1V213.1v-1.5c-5,0-9.5-2-12.8-5.3c-3.3-3.3-5.3-7.8-5.3-12.8
		c0-5,2-9.5,5.3-12.8c3.3-3.3,7.8-5.3,12.8-5.3c5,0,9.5,2,12.8,5.3c3.3,3.3,5.3,7.8,5.3,12.8c0,5-2,9.5-5.3,12.8
		c-3.3,3.3-7.8,5.3-12.8,5.3V213.1z"/>
	<circle id="XMLID_12_" class="st3" cx="320.6" cy="193.6" r="19.6"/>
	<path id="XMLID_13_" class="st4" d="M320.6,213.1v1.5c11.6,0,21.1-9.4,21.1-21.1c0-11.6-9.4-21.1-21.1-21.1
		c-11.6,0-21.1,9.4-21.1,21.1c0,11.6,9.4,21.1,21.1,21.1V213.1v-1.5c-5,0-9.5-2-12.8-5.3c-3.3-3.3-5.3-7.8-5.3-12.8
		c0-5,2-9.5,5.3-12.8c3.3-3.3,7.8-5.3,12.8-5.3c5,0,9.5,2,12.8,5.3c3.3,3.3,5.3,7.8,5.3,12.8c0,5-2,9.5-5.3,12.8
		c-3.3,3.3-7.8,5.3-12.8,5.3V213.1z"/>
	<circle id="XMLID_14_" class="st5" cx="346.3" cy="149.6" r="19.6"/>
	<path id="XMLID_15_" class="st6" d="M346.3,169.1v1.5c11.6,0,21.1-9.4,21.1-21.1c0-11.6-9.4-21.1-21.1-21.1
		c-11.6,0-21.1,9.4-21.1,21.1c0,11.6,9.4,21.1,21.1,21.1V169.1v-1.5c-5,0-9.5-2-12.8-5.3c-3.3-3.3-5.3-7.8-5.3-12.8
		c0-5,2-9.5,5.3-12.8c3.3-3.3,7.8-5.3,12.8-5.3c5,0,9.5,2,12.8,5.3c3.3,3.3,5.3,7.8,5.3,12.8c0,5-2,9.5-5.3,12.8
		c-3.3,3.3-7.8,5.3-12.8,5.3V169.1z"/>
	<circle id="XMLID_16_" class="st7" cx="371.9" cy="193.6" r="19.6"/>
	<path id="XMLID_17_" class="st8" d="M371.9,213.1v1.5c11.6,0,21.1-9.4,21.1-21.1c0-11.6-9.4-21.1-21.1-21.1
		c-11.6,0-21.1,9.4-21.1,21.1c0,11.6,9.4,21.1,21.1,21.1V213.1v-1.5c-5,0-9.5-2-12.8-5.3c-3.3-3.3-5.3-7.8-5.3-12.8
		c0-5,2-9.5,5.3-12.8c3.3-3.3,7.8-5.3,12.8-5.3c5,0,9.5,2,12.8,5.3c3.3,3.3,5.3,7.8,5.3,12.8c0,5-2,9.5-5.3,12.8
		c-3.3,3.3-7.8,5.3-12.8,5.3V213.1z"/>
</g>
</svg>
